G75*
%MOIN*%
%OFA0B0*%
%FSLAX25Y25*%
%IPPOS*%
%LPD*%
%AMOC8*
5,1,8,0,0,1.08239X$1,22.5*
%
%ADD10OC8,0.06600*%
%ADD11C,0.04800*%
%ADD12OC8,0.06300*%
%ADD13C,0.04800*%
%ADD14C,0.01600*%
%ADD15C,0.16598*%
%ADD16C,0.02400*%
D10*
X0014750Y0024300D03*
X0024750Y0024300D03*
X0074750Y0021800D03*
X0074750Y0031800D03*
X0084750Y0031800D03*
X0084750Y0021800D03*
X0084750Y0011800D03*
X0074750Y0011800D03*
X0074750Y0041800D03*
X0084750Y0041800D03*
X0084750Y0051800D03*
X0084750Y0061800D03*
X0074750Y0061800D03*
X0074750Y0051800D03*
X0074750Y0071800D03*
X0074750Y0081800D03*
X0084750Y0081800D03*
X0084750Y0071800D03*
X0064750Y0084300D03*
X0054750Y0084300D03*
X0044750Y0084300D03*
X0034750Y0084300D03*
X0024750Y0079300D03*
X0014750Y0079300D03*
D11*
X0032350Y0071800D02*
X0037150Y0071800D01*
X0037150Y0061800D02*
X0032350Y0061800D01*
X0032350Y0051800D02*
X0037150Y0051800D01*
X0037150Y0041800D02*
X0032350Y0041800D01*
X0032350Y0031800D02*
X0037150Y0031800D01*
X0037150Y0021800D02*
X0032350Y0021800D01*
X0032350Y0011800D02*
X0037150Y0011800D01*
X0062350Y0011800D02*
X0067150Y0011800D01*
X0067150Y0021800D02*
X0062350Y0021800D01*
X0062350Y0031800D02*
X0067150Y0031800D01*
X0067150Y0041800D02*
X0062350Y0041800D01*
X0062350Y0051800D02*
X0067150Y0051800D01*
X0067150Y0061800D02*
X0062350Y0061800D01*
X0062350Y0071800D02*
X0067150Y0071800D01*
X0096100Y0066800D02*
X0100900Y0066800D01*
X0100900Y0056800D02*
X0096100Y0056800D01*
X0096100Y0046800D02*
X0100900Y0046800D01*
X0100900Y0036800D02*
X0096100Y0036800D01*
X0096100Y0026800D02*
X0100900Y0026800D01*
X0100900Y0076800D02*
X0096100Y0076800D01*
D12*
X0063500Y0095550D03*
X0053500Y0095550D03*
D13*
X0018500Y0061300D03*
X0018500Y0042300D03*
D14*
X0011700Y0018158D02*
X0011700Y0005000D01*
X0105300Y0005000D01*
X0105300Y0023280D01*
X0104072Y0022053D01*
X0102014Y0021200D01*
X0095000Y0021200D01*
X0095000Y0019754D01*
X0094391Y0018284D01*
X0093266Y0017159D01*
X0090925Y0014818D01*
X0091250Y0014492D01*
X0091250Y0009108D01*
X0087442Y0005300D01*
X0082058Y0005300D01*
X0079750Y0007608D01*
X0077442Y0005300D01*
X0072058Y0005300D01*
X0070310Y0007048D01*
X0068264Y0006200D01*
X0061236Y0006200D01*
X0059178Y0007053D01*
X0057603Y0008628D01*
X0056750Y0010686D01*
X0056750Y0012914D01*
X0057603Y0014972D01*
X0059178Y0016547D01*
X0059788Y0016800D01*
X0059178Y0017053D01*
X0057603Y0018628D01*
X0056763Y0020656D01*
X0054516Y0018409D01*
X0053046Y0017800D01*
X0041070Y0017800D01*
X0040322Y0017053D01*
X0039712Y0016800D01*
X0040322Y0016547D01*
X0041897Y0014972D01*
X0042750Y0012914D01*
X0042750Y0010686D01*
X0041897Y0008628D01*
X0040322Y0007053D01*
X0038264Y0006200D01*
X0031236Y0006200D01*
X0029178Y0007053D01*
X0027603Y0008628D01*
X0026750Y0010686D01*
X0026750Y0012914D01*
X0027603Y0014972D01*
X0029178Y0016547D01*
X0029788Y0016800D01*
X0029178Y0017053D01*
X0027603Y0018628D01*
X0027218Y0019556D01*
X0026862Y0019200D01*
X0024750Y0019200D01*
X0024750Y0024300D01*
X0024750Y0031800D01*
X0024750Y0036800D01*
X0024750Y0044300D01*
X0027250Y0046800D01*
X0041000Y0046800D01*
X0043500Y0049300D01*
X0043500Y0064300D01*
X0041000Y0066800D01*
X0026000Y0066800D01*
X0026407Y0065800D02*
X0023266Y0068941D01*
X0021796Y0069550D01*
X0020204Y0069550D01*
X0020157Y0069550D01*
X0018750Y0070957D01*
X0018750Y0074108D01*
X0020740Y0076098D01*
X0022638Y0074200D01*
X0024750Y0074200D01*
X0026862Y0074200D01*
X0027580Y0074917D01*
X0026750Y0072914D01*
X0026750Y0070686D01*
X0027603Y0068628D01*
X0029178Y0067053D01*
X0029788Y0066800D01*
X0029178Y0066547D01*
X0028430Y0065800D01*
X0026407Y0065800D01*
X0024868Y0067339D02*
X0028891Y0067339D01*
X0027474Y0068937D02*
X0023269Y0068937D01*
X0026812Y0070536D02*
X0019171Y0070536D01*
X0018750Y0072134D02*
X0026750Y0072134D01*
X0027089Y0073733D02*
X0018750Y0073733D01*
X0019974Y0075332D02*
X0021506Y0075332D01*
X0024750Y0075332D02*
X0024750Y0075332D01*
X0024750Y0074200D02*
X0024750Y0079300D01*
X0024750Y0085550D01*
X0018500Y0091800D01*
X0017442Y0085800D02*
X0012058Y0085800D01*
X0011700Y0085442D01*
X0011700Y0098600D01*
X0049550Y0098600D01*
X0048550Y0097600D01*
X0048550Y0095550D01*
X0053500Y0095550D01*
X0053500Y0095550D01*
X0048550Y0095550D01*
X0048550Y0094950D01*
X0040125Y0094950D01*
X0038508Y0094280D01*
X0035027Y0090800D01*
X0032058Y0090800D01*
X0028250Y0086992D01*
X0028250Y0083012D01*
X0026862Y0084400D01*
X0024750Y0084400D01*
X0024750Y0079300D01*
X0024750Y0079300D01*
X0029850Y0079300D01*
X0029850Y0080008D01*
X0032058Y0077800D01*
X0034100Y0077800D01*
X0034100Y0077400D01*
X0031236Y0077400D01*
X0029233Y0076570D01*
X0029850Y0077188D01*
X0029850Y0079300D01*
X0024750Y0079300D01*
X0024750Y0079300D01*
X0024750Y0084400D01*
X0022638Y0084400D01*
X0020740Y0082502D01*
X0017442Y0085800D01*
X0018320Y0084923D02*
X0028250Y0084923D01*
X0028250Y0083324D02*
X0027938Y0083324D01*
X0024750Y0083324D02*
X0024750Y0083324D01*
X0024750Y0081726D02*
X0024750Y0081726D01*
X0024750Y0080127D02*
X0024750Y0080127D01*
X0024750Y0079300D02*
X0024750Y0079300D01*
X0024750Y0074200D01*
X0024750Y0076930D02*
X0024750Y0076930D01*
X0024750Y0078529D02*
X0024750Y0078529D01*
X0029593Y0076930D02*
X0030102Y0076930D01*
X0029850Y0078529D02*
X0031329Y0078529D01*
X0028250Y0086521D02*
X0011700Y0086521D01*
X0011700Y0088120D02*
X0029377Y0088120D01*
X0030976Y0089718D02*
X0011700Y0089718D01*
X0011700Y0091317D02*
X0035544Y0091317D01*
X0037143Y0092915D02*
X0011700Y0092915D01*
X0011700Y0094514D02*
X0039071Y0094514D01*
X0048550Y0096112D02*
X0011700Y0096112D01*
X0011700Y0097711D02*
X0048660Y0097711D01*
X0044750Y0084300D02*
X0047250Y0081800D01*
X0047250Y0044300D01*
X0044750Y0041800D01*
X0034750Y0041800D01*
X0039712Y0046800D02*
X0040322Y0047053D01*
X0041897Y0048628D01*
X0042750Y0050686D01*
X0042750Y0052914D01*
X0041897Y0054972D01*
X0040322Y0056547D01*
X0039712Y0056800D01*
X0040322Y0057053D01*
X0041897Y0058628D01*
X0042750Y0060686D01*
X0042750Y0062914D01*
X0041897Y0064972D01*
X0040322Y0066547D01*
X0039712Y0066800D01*
X0040322Y0067053D01*
X0041897Y0068628D01*
X0042750Y0070686D01*
X0042750Y0071813D01*
X0042900Y0072175D01*
X0042900Y0077800D01*
X0043250Y0077800D01*
X0043250Y0045957D01*
X0043093Y0045800D01*
X0041070Y0045800D01*
X0040322Y0046547D01*
X0039712Y0046800D01*
X0040296Y0046558D02*
X0043250Y0046558D01*
X0043250Y0048157D02*
X0041426Y0048157D01*
X0042364Y0049755D02*
X0043250Y0049755D01*
X0043250Y0051354D02*
X0042750Y0051354D01*
X0042734Y0052952D02*
X0043250Y0052952D01*
X0043250Y0054551D02*
X0042072Y0054551D01*
X0043250Y0056149D02*
X0040720Y0056149D01*
X0041017Y0057748D02*
X0043250Y0057748D01*
X0043250Y0059346D02*
X0042195Y0059346D01*
X0042750Y0060945D02*
X0043250Y0060945D01*
X0043250Y0062543D02*
X0042750Y0062543D01*
X0043250Y0064142D02*
X0042241Y0064142D01*
X0043250Y0065740D02*
X0041129Y0065740D01*
X0040609Y0067339D02*
X0043250Y0067339D01*
X0043250Y0068937D02*
X0042026Y0068937D01*
X0042688Y0070536D02*
X0043250Y0070536D01*
X0043250Y0072134D02*
X0042883Y0072134D01*
X0042900Y0073733D02*
X0043250Y0073733D01*
X0043250Y0075332D02*
X0042900Y0075332D01*
X0042900Y0076930D02*
X0043250Y0076930D01*
X0051250Y0076930D02*
X0070688Y0076930D01*
X0071548Y0077790D02*
X0069218Y0075460D01*
X0068762Y0075692D01*
X0068134Y0075897D01*
X0067481Y0076000D01*
X0064750Y0076000D01*
X0064750Y0071800D01*
X0074750Y0061800D01*
X0071304Y0065566D02*
X0070322Y0066547D01*
X0068264Y0067400D01*
X0061236Y0067400D01*
X0059178Y0066547D01*
X0057603Y0064972D01*
X0056750Y0062914D01*
X0056750Y0060686D01*
X0057603Y0058628D01*
X0059178Y0057053D01*
X0059788Y0056800D01*
X0059178Y0056547D01*
X0057603Y0054972D01*
X0056750Y0052914D01*
X0056750Y0050686D01*
X0057110Y0049817D01*
X0051250Y0043957D01*
X0051250Y0078608D01*
X0052058Y0077800D01*
X0057442Y0077800D01*
X0060740Y0081098D01*
X0062638Y0079200D01*
X0064750Y0079200D01*
X0066862Y0079200D01*
X0069650Y0081988D01*
X0069650Y0081800D01*
X0074750Y0081800D01*
X0079750Y0076800D01*
X0080428Y0076930D02*
X0078812Y0076930D01*
X0077952Y0077790D02*
X0078760Y0078598D01*
X0080558Y0076800D01*
X0079750Y0075992D01*
X0077952Y0077790D01*
X0078691Y0078529D02*
X0078829Y0078529D01*
X0074750Y0081800D02*
X0074750Y0081800D01*
X0074750Y0086900D01*
X0076862Y0086900D01*
X0078760Y0085002D01*
X0081158Y0087400D01*
X0068862Y0087400D01*
X0069850Y0086412D01*
X0069850Y0084300D01*
X0064750Y0084300D01*
X0064750Y0079300D01*
X0059750Y0079300D01*
X0054750Y0074300D01*
X0054750Y0046800D01*
X0044750Y0036800D01*
X0024750Y0036800D01*
X0022685Y0038566D02*
X0027665Y0038566D01*
X0027603Y0038628D02*
X0029178Y0037053D01*
X0029788Y0036800D01*
X0029178Y0036547D01*
X0027603Y0034972D01*
X0026750Y0032914D01*
X0026750Y0030686D01*
X0027580Y0028683D01*
X0026862Y0029400D01*
X0024750Y0029400D01*
X0024750Y0024300D01*
X0024750Y0021800D01*
X0029750Y0016800D01*
X0023500Y0016800D01*
X0018500Y0011800D01*
X0023500Y0006800D01*
X0046000Y0006800D01*
X0042380Y0009793D02*
X0057120Y0009793D01*
X0056750Y0011391D02*
X0042750Y0011391D01*
X0042719Y0012990D02*
X0056781Y0012990D01*
X0057443Y0014588D02*
X0042057Y0014588D01*
X0040683Y0016187D02*
X0058817Y0016187D01*
X0058445Y0017785D02*
X0041055Y0017785D01*
X0042250Y0016800D02*
X0036000Y0016800D01*
X0029750Y0016800D01*
X0028817Y0016187D02*
X0011700Y0016187D01*
X0011700Y0014588D02*
X0027443Y0014588D01*
X0026781Y0012990D02*
X0011700Y0012990D01*
X0011700Y0011391D02*
X0026750Y0011391D01*
X0027120Y0009793D02*
X0011700Y0009793D01*
X0011700Y0008194D02*
X0028036Y0008194D01*
X0030281Y0006596D02*
X0011700Y0006596D01*
X0011700Y0017785D02*
X0028445Y0017785D01*
X0027289Y0019384D02*
X0027046Y0019384D01*
X0024750Y0019384D02*
X0024750Y0019384D01*
X0024750Y0019200D02*
X0024750Y0024300D01*
X0024750Y0024300D01*
X0024750Y0024300D01*
X0024750Y0029400D01*
X0022638Y0029400D01*
X0020740Y0027502D01*
X0018750Y0029492D01*
X0018750Y0036700D01*
X0019614Y0036700D01*
X0021672Y0037553D01*
X0023247Y0039128D01*
X0024100Y0041186D01*
X0024100Y0043414D01*
X0023247Y0045472D01*
X0023038Y0045681D01*
X0025157Y0047800D01*
X0028430Y0047800D01*
X0029178Y0047053D01*
X0029788Y0046800D01*
X0029178Y0046547D01*
X0027603Y0044972D01*
X0026750Y0042914D01*
X0026750Y0040686D01*
X0027603Y0038628D01*
X0026966Y0040164D02*
X0023677Y0040164D01*
X0024100Y0041763D02*
X0026750Y0041763D01*
X0026935Y0043361D02*
X0024100Y0043361D01*
X0023460Y0044960D02*
X0027597Y0044960D01*
X0029204Y0046558D02*
X0023915Y0046558D01*
X0023500Y0051800D02*
X0018500Y0046800D01*
X0018500Y0042300D01*
X0014750Y0045550D02*
X0014750Y0024300D01*
X0019268Y0028975D02*
X0022212Y0028975D01*
X0024750Y0028975D02*
X0024750Y0028975D01*
X0024750Y0027376D02*
X0024750Y0027376D01*
X0024750Y0025778D02*
X0024750Y0025778D01*
X0024750Y0024179D02*
X0024750Y0024179D01*
X0024750Y0022581D02*
X0024750Y0022581D01*
X0024750Y0020982D02*
X0024750Y0020982D01*
X0024750Y0019200D02*
X0022638Y0019200D01*
X0020740Y0021098D01*
X0017442Y0017800D01*
X0012058Y0017800D01*
X0011700Y0018158D01*
X0019026Y0019384D02*
X0022454Y0019384D01*
X0020855Y0020982D02*
X0020624Y0020982D01*
X0027288Y0028975D02*
X0027459Y0028975D01*
X0026797Y0030573D02*
X0018750Y0030573D01*
X0018750Y0032172D02*
X0026750Y0032172D01*
X0027105Y0033770D02*
X0018750Y0033770D01*
X0018750Y0035369D02*
X0027999Y0035369D01*
X0029384Y0036967D02*
X0020259Y0036967D01*
X0024750Y0031800D02*
X0029750Y0026800D01*
X0047250Y0026800D01*
X0057250Y0036800D01*
X0069750Y0036800D01*
X0074750Y0041800D01*
X0071304Y0038034D02*
X0071548Y0037790D01*
X0070310Y0036552D01*
X0069712Y0036800D01*
X0070322Y0037053D01*
X0071304Y0038034D01*
X0070725Y0036967D02*
X0070116Y0036967D01*
X0074750Y0031800D02*
X0064750Y0031800D01*
X0059788Y0036800D02*
X0059178Y0036547D01*
X0057603Y0034972D01*
X0056750Y0032914D01*
X0056750Y0030800D01*
X0056454Y0030800D01*
X0054984Y0030191D01*
X0053859Y0029066D01*
X0050593Y0025800D01*
X0041070Y0025800D01*
X0040322Y0026547D01*
X0039712Y0026800D01*
X0040322Y0027053D01*
X0041070Y0027800D01*
X0045546Y0027800D01*
X0047016Y0028409D01*
X0048141Y0029534D01*
X0057495Y0038888D01*
X0057603Y0038628D01*
X0059178Y0037053D01*
X0059788Y0036800D01*
X0059384Y0036967D02*
X0055574Y0036967D01*
X0053976Y0035369D02*
X0057999Y0035369D01*
X0057105Y0033770D02*
X0052377Y0033770D01*
X0050779Y0032172D02*
X0056750Y0032172D01*
X0055907Y0030573D02*
X0049180Y0030573D01*
X0047582Y0028975D02*
X0053768Y0028975D01*
X0052169Y0027376D02*
X0040646Y0027376D01*
X0044750Y0031800D02*
X0034750Y0031800D01*
X0029788Y0026800D02*
X0029558Y0026705D01*
X0029233Y0027030D01*
X0029788Y0026800D01*
X0034750Y0021800D02*
X0052250Y0021800D01*
X0057250Y0026800D01*
X0077250Y0026800D01*
X0079750Y0029300D01*
X0079750Y0066800D01*
X0074750Y0071800D01*
X0070019Y0067339D02*
X0068411Y0067339D01*
X0068134Y0067703D02*
X0068762Y0067908D01*
X0069218Y0068140D01*
X0071548Y0065810D01*
X0071304Y0065566D01*
X0071129Y0065740D02*
X0071478Y0065740D01*
X0068134Y0067703D02*
X0067481Y0067600D01*
X0064750Y0067600D01*
X0064750Y0071800D01*
X0064750Y0071800D01*
X0064750Y0071800D01*
X0064750Y0071800D01*
X0058150Y0071800D01*
X0058150Y0072131D01*
X0058253Y0072784D01*
X0058458Y0073412D01*
X0058758Y0074001D01*
X0059146Y0074536D01*
X0059614Y0075004D01*
X0060149Y0075392D01*
X0060738Y0075692D01*
X0061366Y0075897D01*
X0062019Y0076000D01*
X0064750Y0076000D01*
X0064750Y0071800D01*
X0064750Y0067600D01*
X0062019Y0067600D01*
X0061366Y0067703D01*
X0060738Y0067908D01*
X0060149Y0068208D01*
X0059614Y0068596D01*
X0059146Y0069064D01*
X0058758Y0069599D01*
X0058458Y0070188D01*
X0058253Y0070816D01*
X0058150Y0071469D01*
X0058150Y0071800D01*
X0064750Y0071800D01*
X0064750Y0072134D02*
X0064750Y0072134D01*
X0064750Y0070536D02*
X0064750Y0070536D01*
X0064750Y0068937D02*
X0064750Y0068937D01*
X0061089Y0067339D02*
X0051250Y0067339D01*
X0051250Y0065740D02*
X0058371Y0065740D01*
X0057259Y0064142D02*
X0051250Y0064142D01*
X0051250Y0062543D02*
X0056750Y0062543D01*
X0056750Y0060945D02*
X0051250Y0060945D01*
X0051250Y0059346D02*
X0057305Y0059346D01*
X0058483Y0057748D02*
X0051250Y0057748D01*
X0051250Y0056149D02*
X0058780Y0056149D01*
X0057428Y0054551D02*
X0051250Y0054551D01*
X0051250Y0052952D02*
X0056766Y0052952D01*
X0056750Y0051354D02*
X0051250Y0051354D01*
X0051250Y0049755D02*
X0057048Y0049755D01*
X0055450Y0048157D02*
X0051250Y0048157D01*
X0051250Y0046558D02*
X0053851Y0046558D01*
X0052253Y0044960D02*
X0051250Y0044960D01*
X0057173Y0038566D02*
X0057665Y0038566D01*
X0059750Y0046800D02*
X0044750Y0031800D01*
X0055490Y0019384D02*
X0057289Y0019384D01*
X0064750Y0021800D02*
X0074750Y0021800D01*
X0084750Y0021800D02*
X0084750Y0024300D01*
X0091000Y0030550D01*
X0091000Y0034300D01*
X0093500Y0036800D01*
X0098500Y0036800D01*
X0102014Y0042400D02*
X0094986Y0042400D01*
X0092928Y0041547D01*
X0091810Y0040430D01*
X0091343Y0040236D01*
X0094174Y0043067D01*
X0094488Y0042908D01*
X0095116Y0042703D01*
X0095769Y0042600D01*
X0098500Y0042600D01*
X0101231Y0042600D01*
X0101884Y0042703D01*
X0102512Y0042908D01*
X0103101Y0043208D01*
X0103636Y0043596D01*
X0104104Y0044064D01*
X0104492Y0044599D01*
X0104792Y0045188D01*
X0104997Y0045816D01*
X0105100Y0046469D01*
X0105100Y0046800D01*
X0105100Y0047131D01*
X0104997Y0047784D01*
X0104792Y0048412D01*
X0104492Y0049001D01*
X0104104Y0049536D01*
X0103636Y0050004D01*
X0103101Y0050392D01*
X0102512Y0050692D01*
X0101884Y0050897D01*
X0101231Y0051000D01*
X0098500Y0051000D01*
X0098500Y0046800D01*
X0103500Y0046800D01*
X0106000Y0044300D01*
X0106000Y0021800D01*
X0098500Y0014300D01*
X0098500Y0011800D01*
X0093500Y0006800D01*
X0052250Y0006800D01*
X0042250Y0016800D01*
X0041464Y0008194D02*
X0058036Y0008194D01*
X0060281Y0006596D02*
X0039219Y0006596D01*
X0064750Y0011800D02*
X0074750Y0011800D01*
X0078738Y0006596D02*
X0080762Y0006596D01*
X0084750Y0011800D02*
X0084750Y0014300D01*
X0091000Y0020550D01*
X0091000Y0024300D01*
X0093500Y0026800D01*
X0098500Y0026800D01*
X0095000Y0020982D02*
X0105300Y0020982D01*
X0105300Y0022581D02*
X0104600Y0022581D01*
X0105300Y0019384D02*
X0094846Y0019384D01*
X0093892Y0017785D02*
X0105300Y0017785D01*
X0105300Y0016187D02*
X0092293Y0016187D01*
X0091154Y0014588D02*
X0105300Y0014588D01*
X0105300Y0012990D02*
X0091250Y0012990D01*
X0091250Y0011391D02*
X0105300Y0011391D01*
X0105300Y0009793D02*
X0091250Y0009793D01*
X0090336Y0008194D02*
X0105300Y0008194D01*
X0105300Y0006596D02*
X0088738Y0006596D01*
X0070762Y0006596D02*
X0069219Y0006596D01*
X0084750Y0031800D02*
X0087250Y0034300D01*
X0087250Y0041800D01*
X0084750Y0041800D01*
X0087250Y0041800D02*
X0091000Y0045550D01*
X0091000Y0054300D01*
X0093500Y0056800D01*
X0098500Y0056800D01*
X0098500Y0051000D02*
X0095769Y0051000D01*
X0095116Y0050897D01*
X0095000Y0050859D01*
X0095000Y0051200D01*
X0102014Y0051200D01*
X0104072Y0052053D01*
X0105300Y0053280D01*
X0105300Y0040320D01*
X0104072Y0041547D01*
X0102014Y0042400D01*
X0103312Y0043361D02*
X0105300Y0043361D01*
X0105300Y0041763D02*
X0103552Y0041763D01*
X0104676Y0044960D02*
X0105300Y0044960D01*
X0105300Y0046558D02*
X0105100Y0046558D01*
X0105100Y0046800D02*
X0098500Y0046800D01*
X0098500Y0046800D01*
X0105100Y0046800D01*
X0105300Y0048157D02*
X0104875Y0048157D01*
X0105300Y0049755D02*
X0103884Y0049755D01*
X0105300Y0051354D02*
X0102385Y0051354D01*
X0104972Y0052952D02*
X0105300Y0052952D01*
X0098500Y0051000D02*
X0098500Y0046800D01*
X0098500Y0046800D01*
X0098500Y0042600D01*
X0098500Y0046800D01*
X0098500Y0046800D01*
X0098500Y0046558D02*
X0098500Y0046558D01*
X0098500Y0044960D02*
X0098500Y0044960D01*
X0098500Y0043361D02*
X0098500Y0043361D01*
X0098500Y0048157D02*
X0098500Y0048157D01*
X0098500Y0049755D02*
X0098500Y0049755D01*
X0093448Y0041763D02*
X0092870Y0041763D01*
X0084750Y0051800D02*
X0088500Y0055550D01*
X0088500Y0061800D01*
X0093500Y0066800D01*
X0098500Y0066800D01*
X0088500Y0061800D02*
X0084750Y0061800D01*
X0074750Y0051800D02*
X0069750Y0046800D01*
X0059750Y0046800D01*
X0059273Y0068937D02*
X0051250Y0068937D01*
X0051250Y0070536D02*
X0058345Y0070536D01*
X0058151Y0072134D02*
X0051250Y0072134D01*
X0051250Y0073733D02*
X0058621Y0073733D01*
X0060065Y0075332D02*
X0051250Y0075332D01*
X0051250Y0078529D02*
X0051329Y0078529D01*
X0058171Y0078529D02*
X0070809Y0078529D01*
X0071548Y0077790D02*
X0069650Y0079688D01*
X0069650Y0081800D01*
X0074750Y0081800D01*
X0074750Y0086900D01*
X0072638Y0086900D01*
X0069850Y0084112D01*
X0069850Y0084300D01*
X0064750Y0084300D01*
X0064750Y0084300D01*
X0064750Y0079200D01*
X0064750Y0084300D01*
X0064750Y0084300D01*
X0064750Y0083324D02*
X0064750Y0083324D01*
X0064750Y0081726D02*
X0064750Y0081726D01*
X0064750Y0080127D02*
X0064750Y0080127D01*
X0067790Y0080127D02*
X0069650Y0080127D01*
X0069650Y0081726D02*
X0069388Y0081726D01*
X0069850Y0084923D02*
X0070660Y0084923D01*
X0069741Y0086521D02*
X0072259Y0086521D01*
X0074750Y0086521D02*
X0074750Y0086521D01*
X0074750Y0084923D02*
X0074750Y0084923D01*
X0074750Y0083324D02*
X0074750Y0083324D01*
X0074750Y0081800D02*
X0074750Y0081800D01*
X0077241Y0086521D02*
X0080279Y0086521D01*
X0084750Y0081800D02*
X0089750Y0076800D01*
X0091000Y0076800D01*
X0098500Y0076800D01*
X0089750Y0076800D02*
X0084750Y0071800D01*
X0064750Y0073733D02*
X0064750Y0073733D01*
X0064750Y0075332D02*
X0064750Y0075332D01*
X0061710Y0080127D02*
X0059769Y0080127D01*
X0034750Y0061800D02*
X0024750Y0061800D01*
X0021000Y0065550D01*
X0018500Y0065550D01*
X0018500Y0061300D01*
X0018500Y0065550D02*
X0014750Y0069300D01*
X0014750Y0079300D01*
X0019918Y0083324D02*
X0021562Y0083324D01*
X0023500Y0051800D02*
X0034750Y0051800D01*
X0018500Y0046800D02*
X0016000Y0046800D01*
X0014750Y0045550D01*
D15*
X0018500Y0011800D03*
X0098500Y0011800D03*
X0098500Y0091800D03*
X0018500Y0091800D03*
D16*
X0034750Y0084300D02*
X0037250Y0084300D01*
X0038500Y0083050D01*
X0038500Y0073050D01*
X0037250Y0071800D01*
X0034750Y0071800D01*
X0037250Y0084300D02*
X0037250Y0086800D01*
X0041000Y0090550D01*
X0051000Y0090550D01*
X0054750Y0086800D01*
X0054750Y0084300D01*
X0054750Y0086800D02*
X0057250Y0089300D01*
X0061000Y0089300D01*
X0063500Y0091800D01*
X0063500Y0095550D01*
X0063500Y0091800D02*
X0098500Y0091800D01*
M02*
