%
M48
M72
T01C0.03200
T02C0.12598
%
T01
X14750Y24300
X24750Y24300
X34750Y21800
X34750Y31800
X34750Y41800
X34750Y51800
X34750Y61800
X34750Y71800
X24750Y79300
X14750Y79300
X18500Y61300
X18500Y42300
X34750Y11800
X64750Y11800
X74750Y11800
X84750Y11800
X84750Y21800
X84750Y31800
X74750Y31800
X74750Y21800
X64750Y21800
X64750Y31800
X64750Y41800
X74750Y41800
X84750Y41800
X84750Y51800
X84750Y61800
X74750Y61800
X74750Y51800
X64750Y51800
X64750Y61800
X64750Y71800
X74750Y71800
X74750Y81800
X84750Y81800
X84750Y71800
X98500Y66800
X98500Y56800
X98500Y46800
X98500Y36800
X98500Y26800
X98500Y76800
X64750Y84300
X54750Y84300
X44750Y84300
X34750Y84300
X53500Y95550
X63500Y95550
T02
X18500Y11800
X98500Y11800
X98500Y91800
X18500Y91800
M30
