G75*
%MOIN*%
%OFA0B0*%
%FSLAX25Y25*%
%IPPOS*%
%LPD*%
%AMOC8*
5,1,8,0,0,1.08239X$1,22.5*
%
%ADD10OC8,0.07200*%
%ADD11C,0.05400*%
%ADD12OC8,0.06900*%
%ADD13C,0.05400*%
%ADD14C,0.17198*%
D10*
X0014750Y0024300D03*
X0024750Y0024300D03*
X0074750Y0021800D03*
X0074750Y0031800D03*
X0084750Y0031800D03*
X0084750Y0021800D03*
X0084750Y0011800D03*
X0074750Y0011800D03*
X0074750Y0041800D03*
X0084750Y0041800D03*
X0084750Y0051800D03*
X0084750Y0061800D03*
X0074750Y0061800D03*
X0074750Y0051800D03*
X0074750Y0071800D03*
X0074750Y0081800D03*
X0084750Y0081800D03*
X0084750Y0071800D03*
X0064750Y0084300D03*
X0054750Y0084300D03*
X0044750Y0084300D03*
X0034750Y0084300D03*
X0024750Y0079300D03*
X0014750Y0079300D03*
D11*
X0032350Y0071800D02*
X0037150Y0071800D01*
X0037150Y0061800D02*
X0032350Y0061800D01*
X0032350Y0051800D02*
X0037150Y0051800D01*
X0037150Y0041800D02*
X0032350Y0041800D01*
X0032350Y0031800D02*
X0037150Y0031800D01*
X0037150Y0021800D02*
X0032350Y0021800D01*
X0032350Y0011800D02*
X0037150Y0011800D01*
X0062350Y0011800D02*
X0067150Y0011800D01*
X0067150Y0021800D02*
X0062350Y0021800D01*
X0062350Y0031800D02*
X0067150Y0031800D01*
X0067150Y0041800D02*
X0062350Y0041800D01*
X0062350Y0051800D02*
X0067150Y0051800D01*
X0067150Y0061800D02*
X0062350Y0061800D01*
X0062350Y0071800D02*
X0067150Y0071800D01*
X0096100Y0066800D02*
X0100900Y0066800D01*
X0100900Y0056800D02*
X0096100Y0056800D01*
X0096100Y0046800D02*
X0100900Y0046800D01*
X0100900Y0036800D02*
X0096100Y0036800D01*
X0096100Y0026800D02*
X0100900Y0026800D01*
X0100900Y0076800D02*
X0096100Y0076800D01*
D12*
X0063500Y0095550D03*
X0053500Y0095550D03*
D13*
X0018500Y0061300D03*
X0018500Y0042300D03*
D14*
X0018500Y0011800D03*
X0098500Y0011800D03*
X0098500Y0091800D03*
X0018500Y0091800D03*
M02*
